<svg width="37" height="37" xmlns="http://www.w3.org/2000/svg" xmlns:xlink="http://www.w3.org/1999/xlink"><g transform="translate(18 467)"><use xlink:href="#a" transform="translate(-17.222 -466.333)" fill="url(#b)"/><use xlink:href="#c" transform="translate(3.518 -450.037)" fill="url(#d)"/><use xlink:href="#e" transform="translate(3.518 -466.333)" fill="url(#f)"/><use xlink:href="#g" transform="translate(-17.222 -439.667)" fill="#FFF"/><use xlink:href="#g" transform="translate(-17.222 -439.667)" fill="url(#h)"/></g><defs><linearGradient id="b" x2="1" gradientUnits="userSpaceOnUse" gradientTransform="matrix(8.4024 15.3828 -10.9877 11.7633 8.351 -3.62)"><stop offset="0" stop-color="#3AB0D2"/><stop offset="1" stop-color="#29D2B2"/></linearGradient><linearGradient id="d" x2="1" gradientUnits="userSpaceOnUse" gradientTransform="matrix(0 19.2593 -14.8148 0 14.815 0)"><stop offset="0" stop-color="#C070FF"/><stop offset="1" stop-color="#FF5CF8"/></linearGradient><linearGradient id="f" x2="1" gradientUnits="userSpaceOnUse" gradientTransform="matrix(8.4024 7.69142 -10.9877 5.88167 8.351 -1.81)"><stop offset="0" stop-color="#FFE924"/><stop offset="1" stop-color="#FFBB54"/></linearGradient><linearGradient id="h" x2="1" gradientUnits="userSpaceOnUse" gradientTransform="matrix(-9.08809 6.4879 -10.8132 -5.91018 17.625 4.14)"><stop offset="0" stop-color="#FF7857"/><stop offset="1" stop-color="#F89E2D"/></linearGradient><path id="a" d="M0 2.222C0 .995.995 0 2.222 0h10.37c1.228 0 2.223.995 2.223 2.222v16.296a2.222 2.222 0 0 1-2.222 2.223H2.223A2.222 2.222 0 0 1 0 18.518V2.223z"/><path id="c" d="M0 2.222C0 .995.995 0 2.222 0h10.37c1.228 0 2.223.995 2.223 2.222v14.815a2.222 2.222 0 0 1-2.222 2.222H2.223A2.222 2.222 0 0 1 0 17.037V2.222z"/><path id="e" d="M0 2.222C0 .995.995 0 2.222 0h10.37c1.228 0 2.223.995 2.223 2.222v5.926a2.222 2.222 0 0 1-2.222 2.222H2.223A2.222 2.222 0 0 1 0 8.148V2.222z"/><path id="g" d="M0 2.222C0 .995.995 0 2.222 0h10.37c1.228 0 2.223.995 2.223 2.222v4.445a2.222 2.222 0 0 1-2.222 2.222H2.223A2.222 2.222 0 0 1 0 6.667V2.222z"/></defs></svg>
