<svg width="39" height="39" xmlns="http://www.w3.org/2000/svg" xmlns:xlink="http://www.w3.org/1999/xlink"><g transform="translate(-2347 -1975)"><use xlink:href="#a" transform="translate(2347 1975)" fill="#1F2D38"/><use xlink:href="#b" transform="translate(2353.07 1980.2)" fill="url(#c)"/><use xlink:href="#d" transform="translate(2369.24 1992.91)" fill="url(#e)"/><use xlink:href="#f" transform="translate(2369.24 1980.2)" fill="url(#g)"/><use xlink:href="#h" transform="translate(2353.07 2001)" fill="#FFF"/><use xlink:href="#h" transform="translate(2353.07 2001)" fill="url(#i)"/></g><defs><linearGradient id="c" x2="1" gradientUnits="userSpaceOnUse" gradientTransform="matrix(6.55387 11.9986 -8.57044 9.17541 6.514 -2.823)"><stop offset="0" stop-color="#3AB0D2"/><stop offset="1" stop-color="#29D2B2"/></linearGradient><linearGradient id="e" x2="1" gradientUnits="userSpaceOnUse" gradientTransform="matrix(0 15.0222 -11.5556 0 11.556 0)"><stop offset="0" stop-color="#C070FF"/><stop offset="1" stop-color="#FF5CF8"/></linearGradient><linearGradient id="g" x2="1" gradientUnits="userSpaceOnUse" gradientTransform="matrix(6.55387 5.99931 -8.57044 4.5877 6.514 -1.412)"><stop offset="0" stop-color="#FFE924"/><stop offset="1" stop-color="#FFBB54"/></linearGradient><linearGradient id="i" x2="1" gradientUnits="userSpaceOnUse" gradientTransform="matrix(-7.08871 5.06056 -8.43427 -4.60994 13.747 3.229)"><stop offset="0" stop-color="#FF7857"/><stop offset="1" stop-color="#F89E2D"/></linearGradient><path id="a" d="M0 3.467A3.467 3.467 0 0 1 3.467 0h32.066A3.467 3.467 0 0 1 39 3.467v32.066A3.467 3.467 0 0 1 35.533 39H3.467A3.467 3.467 0 0 1 0 35.533V3.467z"/><path id="b" d="M0 1.733C0 .776.776 0 1.733 0h8.09c.957 0 1.733.776 1.733 1.733v12.711c0 .958-.776 1.734-1.734 1.734H1.733A1.733 1.733 0 0 1 0 14.444V1.734z"/><path id="d" d="M0 1.733C0 .776.776 0 1.733 0h8.09c.957 0 1.733.776 1.733 1.733V13.29c0 .957-.776 1.733-1.734 1.733H1.733A1.733 1.733 0 0 1 0 13.29V1.733z"/><path id="f" d="M0 1.733C0 .776.776 0 1.733 0h8.09c.957 0 1.733.776 1.733 1.733v4.623c0 .957-.776 1.733-1.734 1.733H1.733A1.733 1.733 0 0 1 0 6.356V1.733z"/><path id="h" d="M0 1.733C0 .776.776 0 1.733 0h8.09c.957 0 1.733.776 1.733 1.733V5.2c0 .957-.776 1.733-1.734 1.733H1.733A1.733 1.733 0 0 1 0 5.2V1.733z"/></defs></svg>
